<svg width="1920" height="1080" viewBox="0 0 1920 1080" fill="none" xmlns="http://www.w3.org/2000/svg">
  <defs>
    <linearGradient id="sky" x1="960" y1="0" x2="960" y2="760" gradientUnits="userSpaceOnUse">
      <stop offset="0" stop-color="#1B2A49"/>
      <stop offset="0.55" stop-color="#243B67"/>
      <stop offset="1" stop-color="#425D87"/>
    </linearGradient>
    <linearGradient id="haze" x1="960" y1="500" x2="960" y2="820" gradientUnits="userSpaceOnUse">
      <stop offset="0" stop-color="#F59E0B" stop-opacity="0.34"/>
      <stop offset="1" stop-color="#F59E0B" stop-opacity="0"/>
    </linearGradient>
    <linearGradient id="river" x1="960" y1="760" x2="960" y2="1080" gradientUnits="userSpaceOnUse">
      <stop offset="0" stop-color="#1D2B45"/>
      <stop offset="1" stop-color="#0C1322"/>
    </linearGradient>
    <linearGradient id="building" x1="960" y1="420" x2="960" y2="860" gradientUnits="userSpaceOnUse">
      <stop stop-color="#25324A"/>
      <stop offset="1" stop-color="#101726"/>
    </linearGradient>
    <linearGradient id="vignette" x1="960" y1="0" x2="960" y2="1080" gradientUnits="userSpaceOnUse">
      <stop offset="0" stop-color="#000000" stop-opacity="0.08"/>
      <stop offset="1" stop-color="#000000" stop-opacity="0.45"/>
    </linearGradient>
  </defs>

  <rect width="1920" height="760" fill="url(#sky)"/>
  <rect width="1920" height="760" fill="url(#haze)"/>

  <!-- Palace of Westminster inspired silhouette -->
  <rect x="240" y="560" width="1420" height="200" fill="url(#building)"/>
  <rect x="300" y="520" width="120" height="40" fill="#1B263A"/>
  <rect x="450" y="500" width="100" height="60" fill="#1B263A"/>
  <rect x="610" y="490" width="100" height="70" fill="#1B263A"/>
  <rect x="760" y="470" width="140" height="90" fill="#1B263A"/>
  <rect x="940" y="500" width="120" height="60" fill="#1B263A"/>
  <rect x="1100" y="490" width="120" height="70" fill="#1B263A"/>
  <rect x="1260" y="505" width="110" height="55" fill="#1B263A"/>
  <rect x="1410" y="515" width="120" height="45" fill="#1B263A"/>

  <!-- Big Ben inspired tower -->
  <rect x="1560" y="350" width="130" height="410" fill="#1A2336"/>
  <rect x="1540" y="325" width="170" height="28" fill="#202C42"/>
  <rect x="1575" y="250" width="100" height="75" fill="#1F2C43"/>
  <polygon points="1625,178 1694,250 1556,250" fill="#28354F"/>
  <circle cx="1625" cy="292" r="26" fill="#D9B86A" fill-opacity="0.82"/>
  <circle cx="1625" cy="292" r="18" fill="#F5E6B8" fill-opacity="0.5"/>

  <!-- Windows glow -->
  <g opacity="0.72">
    <rect x="320" y="600" width="12" height="24" fill="#E8C06E"/>
    <rect x="372" y="600" width="12" height="24" fill="#E8C06E"/>
    <rect x="510" y="600" width="12" height="24" fill="#E8C06E"/>
    <rect x="662" y="600" width="12" height="24" fill="#E8C06E"/>
    <rect x="818" y="600" width="12" height="24" fill="#E8C06E"/>
    <rect x="980" y="600" width="12" height="24" fill="#E8C06E"/>
    <rect x="1148" y="600" width="12" height="24" fill="#E8C06E"/>
    <rect x="1310" y="600" width="12" height="24" fill="#E8C06E"/>
    <rect x="1458" y="600" width="12" height="24" fill="#E8C06E"/>
    <rect x="1590" y="604" width="10" height="22" fill="#E8C06E"/>
    <rect x="1650" y="604" width="10" height="22" fill="#E8C06E"/>
  </g>

  <!-- River Thames inspired foreground -->
  <rect y="760" width="1920" height="320" fill="url(#river)"/>
  <path d="M0 850C220 825 430 825 650 850C880 877 1040 877 1270 850C1510 822 1720 822 1920 842V1080H0V850Z" fill="#2C456B" fill-opacity="0.5"/>
  <path d="M0 900C260 875 470 875 700 900C950 928 1110 928 1370 900C1600 875 1770 875 1920 892V1080H0V900Z" fill="#35517A" fill-opacity="0.35"/>

  <rect width="1920" height="1080" fill="url(#vignette)"/>
</svg>
